<?xml version="1.0" encoding="UTF-8"?>
<svg xmlns="http://www.w3.org/2000/svg" xmlns:xlink="http://www.w3.org/1999/xlink" width="54pt" height="54pt" viewBox="0 0 54 54" version="1.1">
<g id="surface1">
<path style=" stroke:none;fill-rule:nonzero;fill:rgb(100%,38.431373%,26.27451%);fill-opacity:1;" d="M 15.882812 21.300781 C 16.851562 15.820312 22.078125 12.15625 27.5625 13.125 C 31.578125 13.828125 34.511719 17.332031 35.472656 21.035156 C 36.21875 19.960938 37.140625 19.019531 38.195312 18.25 C 38.4375 16.992188 38.503906 15.707031 38.398438 14.433594 C 37.910156 8.886719 33.019531 4.78125 27.46875 5.265625 C 23.410156 5.625 20.179688 8.859375 18.898438 12.464844 C 17.007812 9.136719 13.257812 6.511719 9.207031 6.871094 C 6.542969 7.101562 4.078125 8.382812 2.359375 10.429688 C 0.640625 12.476562 -0.195312 15.125 0.0390625 17.789062 C 1.15625 30.578125 21.371094 40.773438 21.371094 40.773438 C 21.371094 40.773438 21.757812 40.480469 22.417969 39.957031 C 22.410156 39.949219 22.417969 39.949219 22.417969 39.949219 C 18.449219 34.59375 14.761719 27.636719 15.882812 21.300781 Z M 15.882812 21.300781 "/>
<path style=" stroke:none;fill-rule:nonzero;fill:rgb(100%,31.372549%,13.72549%);fill-opacity:1;" d="M 2.789062 17.789062 C 2.324219 12.484375 6.074219 7.734375 11.34375 6.957031 C 10.636719 6.835938 9.917969 6.808594 9.207031 6.871094 C 6.542969 7.101562 4.078125 8.382812 2.359375 10.429688 C 0.640625 12.476562 -0.195312 15.125 0.0390625 17.789062 C 1.15625 30.578125 21.371094 40.773438 21.371094 40.773438 C 21.371094 40.773438 21.757812 40.480469 22.417969 39.957031 C 22.410156 39.949219 22.417969 39.949219 22.417969 39.949219 C 22.375 39.890625 22.332031 39.832031 22.289062 39.773438 C 17.285156 36.90625 3.699219 28.214844 2.789062 17.789062 Z M 2.789062 17.789062 "/>
<path style=" stroke:none;fill-rule:nonzero;fill:rgb(100%,31.372549%,13.72549%);fill-opacity:1;" d="M 21.648438 12.464844 C 22.878906 9.003906 25.90625 5.890625 29.738281 5.332031 C 28.988281 5.222656 28.226562 5.203125 27.46875 5.265625 C 24.335938 5.65625 21.566406 7.488281 19.984375 10.222656 C 20.628906 10.898438 21.183594 11.652344 21.648438 12.464844 Z M 21.648438 12.464844 "/>
<path style=" stroke:none;fill-rule:nonzero;fill:rgb(100%,31.372549%,13.72549%);fill-opacity:1;" d="M 30.3125 13.125 C 29.269531 12.941406 28.203125 12.925781 27.15625 13.074219 C 27.292969 13.089844 27.425781 13.097656 27.5625 13.125 C 31.578125 13.828125 34.511719 17.332031 35.472656 21.035156 C 36.027344 20.234375 36.679688 19.507812 37.417969 18.867188 C 36.101562 15.929688 33.460938 13.796875 30.3125 13.125 Z M 30.3125 13.125 "/>
<path style=" stroke:none;fill-rule:nonzero;fill:rgb(100%,47.45098%,33.72549%);fill-opacity:1;" d="M 45.625 16.304688 C 42.984375 15.910156 40.300781 16.609375 38.195312 18.25 C 37.140625 19.019531 36.21875 19.960938 35.472656 21.035156 C 34.511719 17.332031 31.578125 13.828125 27.5625 13.125 C 22.078125 12.15625 16.851562 15.820312 15.882812 21.300781 C 14.761719 27.636719 18.449219 34.59375 22.417969 39.949219 C 22.417969 39.949219 22.410156 39.949219 22.417969 39.957031 C 24.84375 43.222656 27.5625 46.257812 30.542969 49.027344 C 30.542969 49.027344 51.574219 40.628906 53.800781 27.996094 C 54.765625 22.507812 51.105469 17.277344 45.625 16.304688 Z M 45.625 16.304688 "/>
<path style=" stroke:none;fill-rule:nonzero;fill:rgb(100%,59.607843%,6.666667%);fill-opacity:1;" d="M 7.621094 38.941406 C 7.3125 38.945312 7.027344 38.792969 6.855469 38.539062 C 6.6875 38.28125 6.65625 37.957031 6.777344 37.675781 C 6.859375 37.445312 7.042969 37.265625 7.273438 37.179688 C 7.496094 37.089844 7.746094 37.089844 7.96875 37.179688 C 8.082031 37.226562 8.183594 37.289062 8.273438 37.375 C 8.355469 37.460938 8.417969 37.5625 8.464844 37.675781 C 8.609375 38.015625 8.535156 38.414062 8.273438 38.675781 C 8.183594 38.757812 8.078125 38.820312 7.96875 38.867188 C 7.859375 38.914062 7.742188 38.941406 7.621094 38.941406 Z M 7.621094 38.941406 "/>
<path style=" stroke:none;fill-rule:nonzero;fill:rgb(100%,59.607843%,6.666667%);fill-opacity:1;" d="M 50.710938 7.769531 C 50.46875 7.773438 50.234375 7.675781 50.058594 7.503906 C 49.886719 7.332031 49.792969 7.097656 49.792969 6.851562 C 49.796875 6.609375 49.894531 6.375 50.058594 6.203125 C 50.105469 6.164062 50.148438 6.125 50.195312 6.089844 C 50.25 6.054688 50.304688 6.027344 50.363281 6.007812 C 50.414062 5.980469 50.46875 5.964844 50.527344 5.953125 C 50.644531 5.925781 50.765625 5.925781 50.882812 5.953125 C 50.945312 5.960938 51.003906 5.980469 51.058594 6.007812 C 51.117188 6.027344 51.167969 6.054688 51.214844 6.089844 C 51.269531 6.121094 51.316406 6.160156 51.363281 6.203125 C 51.53125 6.378906 51.625 6.609375 51.628906 6.851562 C 51.632812 7.097656 51.535156 7.332031 51.363281 7.503906 C 51.191406 7.675781 50.957031 7.773438 50.710938 7.769531 Z M 50.710938 7.769531 "/>
<path style=" stroke:none;fill-rule:nonzero;fill:rgb(100%,59.607843%,6.666667%);fill-opacity:1;" d="M 47.042969 13.269531 C 46.800781 13.273438 46.566406 13.175781 46.394531 13.003906 C 46.222656 12.832031 46.125 12.597656 46.128906 12.351562 C 46.128906 12.109375 46.226562 11.878906 46.394531 11.703125 C 46.480469 11.621094 46.582031 11.554688 46.695312 11.507812 C 46.859375 11.4375 47.042969 11.417969 47.21875 11.453125 C 47.277344 11.464844 47.335938 11.480469 47.390625 11.507812 C 47.449219 11.527344 47.5 11.554688 47.546875 11.59375 C 47.601562 11.628906 47.648438 11.664062 47.695312 11.703125 C 47.863281 11.878906 47.957031 12.109375 47.960938 12.351562 C 47.964844 12.597656 47.867188 12.832031 47.695312 13.003906 C 47.523438 13.175781 47.289062 13.273438 47.042969 13.269531 Z M 47.042969 13.269531 "/>
<path style=" stroke:none;fill-rule:nonzero;fill:rgb(100%,59.607843%,6.666667%);fill-opacity:1;" d="M 14.957031 52.691406 C 14.710938 52.695312 14.476562 52.601562 14.304688 52.425781 C 14.222656 52.339844 14.160156 52.234375 14.113281 52.125 C 14.058594 52.015625 14.035156 51.898438 14.039062 51.777344 C 14.039062 51.65625 14.066406 51.539062 14.113281 51.429688 C 14.160156 51.316406 14.222656 51.214844 14.304688 51.125 C 14.566406 50.867188 14.960938 50.789062 15.304688 50.933594 C 15.414062 50.976562 15.519531 51.042969 15.605469 51.125 C 15.6875 51.214844 15.753906 51.316406 15.796875 51.429688 C 15.898438 51.648438 15.898438 51.902344 15.796875 52.125 C 15.753906 52.234375 15.6875 52.339844 15.605469 52.425781 C 15.433594 52.601562 15.199219 52.695312 14.957031 52.691406 Z M 14.957031 52.691406 "/>
<path style=" stroke:none;fill-rule:nonzero;fill:rgb(100%,59.607843%,6.666667%);fill-opacity:1;" d="M 7.621094 43.523438 L 6.703125 43.523438 L 6.703125 42.609375 C 6.703125 42.101562 6.292969 41.691406 5.785156 41.691406 C 5.28125 41.691406 4.871094 42.101562 4.871094 42.609375 L 4.871094 43.523438 L 3.953125 43.523438 C 3.445312 43.523438 3.035156 43.9375 3.035156 44.441406 C 3.035156 44.949219 3.445312 45.359375 3.953125 45.359375 L 4.871094 45.359375 L 4.871094 46.277344 C 4.871094 46.78125 5.28125 47.191406 5.785156 47.191406 C 6.292969 47.191406 6.703125 46.78125 6.703125 46.277344 L 6.703125 45.359375 L 7.621094 45.359375 C 8.128906 45.359375 8.539062 44.949219 8.539062 44.441406 C 8.539062 43.9375 8.128906 43.523438 7.621094 43.523438 Z M 7.621094 43.523438 "/>
<path style=" stroke:none;fill-rule:nonzero;fill:rgb(100%,59.607843%,6.666667%);fill-opacity:1;" d="M 45.210938 3.183594 L 44.292969 3.183594 L 44.292969 2.269531 C 44.292969 1.761719 43.882812 1.351562 43.375 1.351562 C 42.871094 1.351562 42.460938 1.761719 42.460938 2.269531 L 42.460938 3.183594 L 41.542969 3.183594 C 41.035156 3.183594 40.625 3.59375 40.625 4.101562 C 40.625 4.609375 41.035156 5.019531 41.542969 5.019531 L 42.460938 5.019531 L 42.460938 5.933594 C 42.460938 6.441406 42.871094 6.851562 43.375 6.851562 C 43.882812 6.851562 44.292969 6.441406 44.292969 5.933594 L 44.292969 5.019531 L 45.210938 5.019531 C 45.714844 5.019531 46.128906 4.609375 46.128906 4.101562 C 46.128906 3.59375 45.714844 3.183594 45.210938 3.183594 Z M 45.210938 3.183594 "/>
</g>
</svg>
